# xmcd CD database file
#
# Track frame offsets:
#	150
#	40168
#	77924
#	103056
#	140205
#	167510
#	205925
#	243271
#	282226
#
# Disc length: 4111 seconds
#
# Revision: 0
# Processed by: cddbd v1.5.2PL0 Copyright (c) Steve Scherf et al.
# Submitted via: CDex 1.51
#
DISCID=7d100d09
DTITLE=Andy LaVerne - Between Earth and Mars
DYEAR=2000
DGENRE=Jazz
TTITLE0=Retrospect
TTITLE1=Gardenia
TTITLE2=On Green Dolphin Street
TTITLE3=Tenderly
TTITLE4=Blue in Green
TTITLE5=Tri-Tones
TTITLE6=Maiden Voyage
TTITLE7=Between Earth and Mars
TTITLE8=B.E.
EXTD=YEAR: 2000
EXTT0=
EXTT1=
EXTT2=
EXTT3=
EXTT4=
EXTT5=
EXTT6=
EXTT7=
EXTT8=
PLAYORDER=
